<svg xmlns="http://www.w3.org/2000/svg" width="74" height="74" viewBox="0 0 74 74"><defs><linearGradient id="a" x1="50%" x2="50%" y1="0%" y2="100%"><stop offset="0%" stop-color="#0099EC"/><stop offset="100%" stop-color="#0054AE"/></linearGradient></defs><g fill="none" fill-rule="evenodd"><circle cx="37" cy="37" r="35" fill="#FFF"/><path fill="url(#a)" d="M73.3333,36.6667 C73.3333,56.9171 56.9171,73.3334 36.6666,73.3334 C16.4162,73.3334 0,56.9171 0,36.6667 C0,16.4163 16.4162,0 36.6666,0 C56.9171,0 73.3333,16.4163 73.3333,36.6667 Z M36.6666,28.3334 C39.4281,28.3334 41.6666,26.0948 41.6666,23.3334 C41.6666,20.5719 39.4281,18.3334 36.6666,18.3334 C33.9052,18.3334 31.6666,20.5719 31.6666,23.3334 C31.6666,26.0948 33.9052,28.3334 36.6666,28.3334 Z M17.1548,30.4882 C17.4674,30.1756 17.8913,30 18.3333,30 L55,30 C55.442,30 55.8659,30.1756 56.1785,30.4882 C56.491,30.8007 56.6666,31.2247 56.6666,31.6667 C56.6666,32.1087 56.491,32.5326 56.1785,32.8452 C55.8659,33.1578 55.442,33.3334 55,33.3334 L45,33.3334 C44.5579,33.3334 44.134,33.509 43.8215,33.8215 C43.5089,34.1341 43.3333,34.558 43.3333,35 L43.3333,59.1667 C43.3333,59.3877 43.2455,59.5997 43.0892,59.7559 C42.9329,59.9122 42.721,60 42.5,60 L40.8333,60 C40.6123,60 40.4003,59.9122 40.244,59.7559 C40.0878,59.5997 40,59.3877 40,59.1667 L40,48.3334 C40,47.8913 39.8244,47.4674 39.5118,47.1548 C39.1993,46.8423 38.7753,46.6667 38.3333,46.6667 L35,46.6667 C34.5579,46.6667 34.134,46.8423 33.8215,47.1548 C33.5089,47.4674 33.3333,47.8913 33.3333,48.3334 L33.3333,59.1667 C33.3333,59.3877 33.2455,59.5997 33.0892,59.7559 C32.9329,59.9122 32.721,60 32.5,60 L30.8333,60 C30.6123,60 30.4003,59.9122 30.2441,59.7559 C30.0878,59.5997 30,59.3877 30,59.1667 L30,35 C30,34.558 29.8244,34.1341 29.5118,33.8215 C29.1993,33.509 28.7753,33.3334 28.3333,33.3334 L18.3333,33.3334 C17.8913,33.3334 17.4674,33.1578 17.1548,32.8452 C16.8422,32.5326 16.6666,32.1087 16.6666,31.6667 C16.6666,31.2247 16.8422,30.8007 17.1548,30.4882 Z M33.3333,33.3334 L33.3333,43.3334 L40,43.3334 L40,33.3334 L33.3333,33.3334 Z"/></g></svg>